<svg xmlns="http://www.w3.org/2000/svg" width="16" height="16" viewBox="0 0 16 16">
  <g id="Layer_2" data-name="Layer 2" transform="translate(-0.152 -0.152)">
    <g id="download" transform="translate(0.152 0.152)">
      <rect id="Rectangle_223" data-name="Rectangle 223" width="16" height="16" transform="translate(0)" fill="#fff" opacity="0"/>
      <rect id="Rectangle_224" data-name="Rectangle 224" width="12" height="1" rx="0.5" transform="translate(2 13)" fill="#fff"/>
      <rect id="Rectangle_225" data-name="Rectangle 225" width="4" height="1" rx="0.5" transform="translate(2 14) rotate(-90)" fill="#fff"/>
      <rect id="Rectangle_226" data-name="Rectangle 226" width="4" height="1" rx="0.5" transform="translate(13 14) rotate(-90)" fill="#fff"/>
      <path id="Path_228" data-name="Path 228" d="M10.405,13.406a.681.681,0,0,1-.4-.123L7.286,11.362a.681.681,0,1,1,.79-1.11l2.33,1.628,2.316-1.744a.681.681,0,1,1,.817,1.09L10.814,13.27A.681.681,0,0,1,10.405,13.406Z" transform="translate(-2.405 -3.362)" fill="#fff"/>
      <path id="Path_229" data-name="Path 229" d="M11.681,9.812A.681.681,0,0,1,11,9.13V3.681a.681.681,0,0,1,1.362,0V9.13A.681.681,0,0,1,11.681,9.812Z" transform="translate(-3.681 -1.13)" fill="#fff"/>
    </g>
  </g>
</svg>
