<svg xmlns="http://www.w3.org/2000/svg" width="14" height="14" viewBox="0 0 14 14">
  <g id="Layer_2" data-name="Layer 2" transform="translate(-0.156 -0.156)" opacity="0.8">
    <g id="briefcase" transform="translate(0.156 0.156)">
      <rect id="Rectangle_204" data-name="Rectangle 204" width="14" height="14" fill="#0a0413" opacity="0"/>
      <path id="Path_220" data-name="Path 220" d="M12.422,5.5H10.583V4.56A1.547,1.547,0,0,0,9.05,3H7.211A1.547,1.547,0,0,0,5.678,4.56V5.5H3.839A1.856,1.856,0,0,0,2,7.369v4.993a1.856,1.856,0,0,0,1.839,1.872h8.583a1.856,1.856,0,0,0,1.839-1.872V7.369A1.856,1.856,0,0,0,12.422,5.5ZM9.97,6.745v6.242H6.291V6.745ZM6.9,4.56a.309.309,0,0,1,.307-.312H9.05a.309.309,0,0,1,.307.312V5.5H6.9Zm-3.678,7.8V7.369a.619.619,0,0,1,.613-.624H5.065v6.242H3.839A.619.619,0,0,1,3.226,12.362Zm9.809,0a.619.619,0,0,1-.613.624H11.2V6.745h1.226a.619.619,0,0,1,.613.624Z" transform="translate(-1.13 -1.617)" fill="#0a0413"/>
    </g>
  </g>
</svg>
