<svg xmlns="http://www.w3.org/2000/svg" width="93.42" height="88.201" viewBox="0 0 93.42 88.201">
  <path id="Intersection_1" data-name="Intersection 1" d="M4223.862-1169.508c-.519-14.469-6.464-23.547-11.4-28.632a35.881,35.881,0,0,0-9.951-7.312c3.212,10.076,7.844,24.889,10.922,35.944H4166.91c-.031-11.18.01-23.581.024-27.25-1.317,1.264-4.224,4.015-7.252,6.627-7.541,6.5-9.392,6.668-10.164,6.086-1.293-1-2.392-3.211-3.358-6.772a83.387,83.387,0,0,1-2.021-11.04c-.941-7.471-1.337-15.287-1.479-18.857l-.034.026-.014.01a1.188,1.188,0,0,1-1.624-.276s0,0,0-.005l-.649-.907a.434.434,0,0,1-.076-.184h0a1.171,1.171,0,0,1,.337-1.524l0,0,1.282-.909a.123.123,0,0,1,.021-.015l.662-.415a4.372,4.372,0,0,1,1.626-4.092l.022-.016a2.36,2.36,0,0,1,.949-.4,1.814,1.814,0,0,1,.553,0,1.2,1.2,0,0,1,.152-.617,1.748,1.748,0,0,1,1.294-.83,2.413,2.413,0,0,1,.424-.028,2.535,2.535,0,0,1,1.643-1.177c.045-.01.091-.018.137-.026a2.535,2.535,0,0,1,1.906.467,4.721,4.721,0,0,1,.513.418l1.778-1.265a1.157,1.157,0,0,1,.508-.211,1.171,1.171,0,0,1,.362,0l.06.012a.877.877,0,0,1,.127-.159c.017-.016.034-.031.052-.045l1.744-1.259a.929.929,0,0,1,.3-.143,7.569,7.569,0,0,1-.585-1.247,7.707,7.707,0,0,1,4.6-9.869.421.421,0,0,1,.079-.021l.04-.006a7.558,7.558,0,0,1,1.184-.286,7.549,7.549,0,0,1,.994-.091,37.854,37.854,0,0,1,1.268-4.819,22.6,22.6,0,0,1,1.249-3l0-.006c1.26-2.422,2.715-3.774,4.335-4.03a3.487,3.487,0,0,1,.559-.045c2.38-.019,4.582,1.383,6.547,4.168l.593-.095a53.329,53.329,0,0,1,6.834-.728c2.5-.051,3.78.341,4.028,1.238a1.539,1.539,0,0,1-.283,1.426c-.677.854-2.407,1.435-5.14,1.728a37.909,37.909,0,0,1-3.949.2c.163.371.3.694.4.948a2.3,2.3,0,0,1,1.248-.666,2.257,2.257,0,0,1,1.425.274c1.647.875,2.885,3.482,2.325,4.894l-.011.027-.014.025a3.217,3.217,0,0,1-2.531,1.636c1.712,4.859,2.842,9.327,4.034,14.047.407,1.607.826,3.267,1.278,4.974a3.168,3.168,0,0,1,2.3,2.357l9.886.139a.434.434,0,0,1,.1.015,44.169,44.169,0,0,1,15.983,7.965,46.085,46.085,0,0,1,11.217,12.866,48.946,48.946,0,0,1,5.957,15.8,47.311,47.311,0,0,1,.48,14.969ZM4158-1231.987a.089.089,0,0,0-.012.009l-1.744,1.262a.99.99,0,0,1-.215.114,1.174,1.174,0,0,1-.487.942l-1.672,1.223-.035.023a2.537,2.537,0,0,1,.121,2.492,3.844,3.844,0,0,1-.606,3.285,4.73,4.73,0,0,1-3.544,1.4c1.339,9.151,2.95,17.6,3.576,20.24.271-.507.637-1.215,1.015-1.946,1.52-2.943,4.065-7.867,6.49-11.6,1.986-3.073,9.7-4.046,11.39-4.224.007-.04.016-.08.024-.12a3.721,3.721,0,0,1,1.307-2.546.142.142,0,0,1,.02-.015,2.732,2.732,0,0,1,.371-.208,10.928,10.928,0,0,0-.3-5.321c-.072-.328-.145-.664-.219-1.017a3.4,3.4,0,0,1-.376-.027c-1.084-.138-3.447-2.112-5.247-3.942a7.705,7.705,0,0,1-1.843,1.021s0,0-.006,0a7.688,7.688,0,0,1-1.44.372,7.693,7.693,0,0,1-6.266-1.814A.944.944,0,0,1,4158-1231.987Zm-12.719,6.42a.422.422,0,0,1-.171.053l-1.8,1.146-.933.586-1.269.9a.317.317,0,0,0-.075.435.42.42,0,0,1,.067.159l.587.822a.328.328,0,0,0,.442.077l.581-.427.009-.007.4-.276.009-.007.813-.533,2.765-1.8c-.212-.534-.488-1.115-.842-1.243a.42.42,0,0,0-.146-.025A.885.885,0,0,0,4145.277-1225.567Zm34.281-9a.43.43,0,0,1,.341.5,8.408,8.408,0,0,1-2.14,3.918,6.6,6.6,0,0,1-3.427,2.067c.066.316.132.619.2.916a12.452,12.452,0,0,1,.4,5.2,50.686,50.686,0,0,1,11.373-1.742c-.422-1.606-.817-3.168-1.2-4.683-1.214-4.8-2.362-9.342-4.124-14.286a3.625,3.625,0,0,1-.468-.088.428.428,0,0,1-.311-.522.431.431,0,0,1,.522-.312,2.858,2.858,0,0,0,.628.088h.032a2.356,2.356,0,0,0,2.282-1.17,2.814,2.814,0,0,0-.335-1.964,4.123,4.123,0,0,0-1.6-1.827c-.771-.41-1.431-.19-2.018.671a5.841,5.841,0,0,0-.673,1.371.43.43,0,0,1-.543.271.431.431,0,0,1-.272-.544,6.7,6.7,0,0,1,.627-1.347c-.023-.058-.052-.13-.087-.219-.148-.374-.4-1-.758-1.76-.248-.529-.479-.975-.728-1.4l-.078-.136c-.216-.372-.408-.7-.628-1.051-3.906.633-8.507,1.74-11.277,2.407l-.264.063a37.176,37.176,0,0,0-1.143,4.356,7.581,7.581,0,0,1,1.582.316,7.66,7.66,0,0,1,4.54,3.751,7.691,7.691,0,0,1,.9,3.724.479.479,0,0,1,.045.134c.247,1.558.658,1.828.78,1.875.205.077.492-.107.7-.276a.431.431,0,0,1,.606.059.431.431,0,0,1-.06.606,1.537,1.537,0,0,1-1.548.415,1.6,1.6,0,0,1-.818-.809c-.013.046-.027.091-.04.136a7.718,7.718,0,0,1-1.719,2.982c-.112.12-.229.237-.348.35,2.127,2.156,4.078,3.565,4.694,3.644a2.5,2.5,0,0,0,.572.006h.012a5.412,5.412,0,0,0,3.346-1.865,7.511,7.511,0,0,0,1.922-3.492.43.43,0,0,1,.422-.348A.423.423,0,0,1,4179.558-1234.564Zm-31.586,12.367a9.664,9.664,0,0,0,1.371.109c.9.013,2.53-.112,3.339-1.094a3.119,3.119,0,0,0,.4-2.7.727.727,0,0,1-.027-.138,3.708,3.708,0,0,0-1.756-2.177,1.878,1.878,0,0,0-1.06-.187.415.415,0,0,1-.2.03l-.068.012a.514.514,0,0,0-.318.6.279.279,0,0,1,.005.028c.015.1.335.333.526.475a4.87,4.87,0,0,1,1.168,1.11,2.9,2.9,0,0,1,.53,1.483.429.429,0,0,1-.4.459.428.428,0,0,1-.39-.193c-.025.033-.052.064-.08.095a1.493,1.493,0,0,1-1.271.5,1.539,1.539,0,0,1-.88.873,1.537,1.537,0,0,1-1.894-.679l-1.863,1.215a8.223,8.223,0,0,0,2.753.177l.041,0A.45.45,0,0,1,4147.972-1222.2Zm-1.825-4.294c.8.288,1.177,1.275,1.479,2.069l.06.157a.368.368,0,0,1,.021.067c.015.073.028.145.037.22a.681.681,0,0,0,.813.263.682.682,0,0,0,.413-.808.415.415,0,0,1-.012-.155,11.207,11.207,0,0,0-2.244-3.2.4.4,0,0,1-.112-.08l-.228-.224a1.224,1.224,0,0,0-1.667-.14,3.509,3.509,0,0,0-1.331,2.889l1.448-.92a.447.447,0,0,1,.164-.062l.094-.015a1.692,1.692,0,0,1,.406-.12,1.388,1.388,0,0,1,.22-.018A1.282,1.282,0,0,1,4146.146-1226.491Zm.475-3.143c-.134.249.042.517.214.7l.1.1c.089.072.174.145.253.218l.021.02a12.067,12.067,0,0,1,2.628,3.782.4.4,0,0,1,.028.082.9.9,0,0,1,.021.1.642.642,0,0,0,.437-.178.734.734,0,0,0,.186-.847.423.423,0,0,1-.021-.185,4.979,4.979,0,0,0-.815-.707c-.4-.3-.784-.582-.861-1.016a1.373,1.373,0,0,1,.591-1.444,3.029,3.029,0,0,0-1.369-.953l-.029-.011a.494.494,0,0,0-.122-.033.224.224,0,0,1-.029,0,1.708,1.708,0,0,0-.323-.031A1.034,1.034,0,0,0,4146.622-1229.634Zm5.071.675.013.007a4.566,4.566,0,0,1,1.537,1.376,8.314,8.314,0,0,0-1.857-2.824l-.007-.007a3.862,3.862,0,0,0-.606-.529l-.008-.006a1.684,1.684,0,0,0-1.355-.293,1.675,1.675,0,0,0-.9.53,3.881,3.881,0,0,1,1.792,1.459c.056,0,.113-.005.169-.005A2.723,2.723,0,0,1,4151.692-1228.96Zm2.375-2.829-.006,0-1.681,1.2a10.54,10.54,0,0,1,1.04,1.412l1.611-1.178a.318.318,0,0,0,.108-.376.777.777,0,0,1-.092-.079.413.413,0,0,1-.109-.179c0-.011-.006-.02-.01-.031l-.424-.586a.413.413,0,0,1-.077-.184.3.3,0,0,0-.132-.056.31.31,0,0,0-.047,0A.307.307,0,0,0,4154.068-1231.789Zm3.094-9.269a6.794,6.794,0,0,0-.226,5.23,6.846,6.846,0,0,0,7.488,4.416,7.246,7.246,0,0,0,.712-.153c-1.751-1.874-5.068-5.826-5.078-8.856v-.009a24.987,24.987,0,0,1,.381-3.925A6.792,6.792,0,0,0,4157.162-1241.058Zm-.245,7.609-1.7,1.23a.035.035,0,0,0-.005.017l.55.77,1.71-1.236a.081.081,0,0,0,.014-.108l-.47-.655a.07.07,0,0,0-.045-.03h-.012A.07.07,0,0,0,4156.917-1233.45Zm4.46-11.246a24.054,24.054,0,0,0-.46,4.276c.008,2.015,1.915,5.2,5.1,8.542a6.751,6.751,0,0,0,3.73-4.221,6.859,6.859,0,0,0-4.535-8.542,6.721,6.721,0,0,0-1.587-.295l-.3-.015h-.118A6.735,6.735,0,0,0,4161.378-1244.7Zm16.116-8.057c.153.25.3.5.454.768l.078.135c.219.378.425.767.639,1.21a33.764,33.764,0,0,0,5.457-.349c1.529-.242,2.872-.633,3.357-1.247a.673.673,0,0,0,.13-.656l0-.006c-.025-.092-.28-.606-2.781-.606A48.56,48.56,0,0,0,4177.494-1252.753Zm-7.054-4.1c-1.5.006-2.892,1.221-4.134,3.611a21.67,21.67,0,0,0-.935,2.139c2.706-.65,6.942-1.662,10.66-2.286-1.712-2.3-3.579-3.463-5.552-3.463Zm1.918,24.92a.431.431,0,0,1-.108-.6.429.429,0,0,1,.6-.109,1.774,1.774,0,0,0,1.493.25,1.773,1.773,0,0,0,1.143-.993.43.43,0,0,1,.327-.251.422.422,0,0,1,.24.032.429.429,0,0,1,.22.567,2.626,2.626,0,0,1-1.7,1.472,2.637,2.637,0,0,1-.717.1A2.634,2.634,0,0,1,4172.358-1231.93Zm-6.266-6.25a.909.909,0,0,1-.367-1.2.915.915,0,0,1,.669-.486.9.9,0,0,1,.555.09.909.909,0,0,1,.314,1.2.912.912,0,0,1-.8.481A.907.907,0,0,1,4166.092-1238.18Zm7.82-2.412a.524.524,0,0,1-.261-.69.505.505,0,0,1,.285-.271.525.525,0,0,1,.1-.028.52.52,0,0,1,.29.038.523.523,0,0,1,.28.289.519.519,0,0,1-.006.4.536.536,0,0,1-.483.3A.533.533,0,0,1,4173.912-1240.592Zm-10.071-.483a.614.614,0,0,1,.035-.869,4.044,4.044,0,0,1,2.1-1.016,3.993,3.993,0,0,1,1.371.019.614.614,0,0,1,.491.717.614.614,0,0,1-.718.491,2.812,2.812,0,0,0-2.414.694.617.617,0,0,1-.417.162A.609.609,0,0,1,4163.841-1241.075Zm8.325-2.925a.431.431,0,0,1,.088-.6,3.876,3.876,0,0,1,1.7-.712,3.864,3.864,0,0,1,1.684.1.43.43,0,0,1,.292.534.429.429,0,0,1-.534.292,3.011,3.011,0,0,0-2.628.472.43.43,0,0,1-.257.085A.429.429,0,0,1,4172.166-1244Zm8.092-1.664a.431.431,0,0,1-.185-.579.433.433,0,0,1,.315-.226.426.426,0,0,1,.265.043,2.614,2.614,0,0,0,1.792.226.43.43,0,0,1,.516.321.429.429,0,0,1-.321.516,3.465,3.465,0,0,1-.784.09A3.47,3.47,0,0,1,4180.258-1245.665Z" transform="translate(-4140.109 1257.709)" fill="#0a0413"/>
</svg>
