<svg xmlns="http://www.w3.org/2000/svg" width="88.765" height="92.631" viewBox="0 0 88.765 92.631">
  <path id="Intersection_2" data-name="Intersection 2" d="M4234.351-1166.619q.214-.223.357-.389a7.56,7.56,0,0,0,1.611-7.367,8.434,8.434,0,0,0-6.034-5.549c-.39-.094-.74-.175-1.065-.245l-.359,6.621a3.814,3.814,0,0,1-3.029,3.623l-.011,0-14.118,2.642-.515.661h-1.117l.321-.416-2.22.416h-4.805l22.286-4.172a2.93,2.93,0,0,0,2.324-2.788v-.011l1.033-19.083a3.046,3.046,0,0,0-.91-2.422,3.044,3.044,0,0,0-2.428-.857l-30.072,4.766a2.905,2.905,0,0,0-2.443,2.875v.014l-.62,19.833a3.028,3.028,0,0,0,.468,1.845h-1a3.929,3.929,0,0,1-.346-1.9l.046-1.487-.064.01a1.65,1.65,0,0,1-.245.012,1.931,1.931,0,0,1-.579-.108,1.644,1.644,0,0,1-1.21.725,2.624,2.624,0,0,1-.651-.008c-.013.014-.024.028-.038.042a1.455,1.455,0,0,1-.87.487,1.052,1.052,0,0,1-.315-.007c-.684-.12-1.163-.862-1.528-1.606l-3.683.659a.692.692,0,0,0-.519.628.693.693,0,0,0,.438.681l7.153,1.869h-3.49l-3.945-1.031a1.561,1.561,0,0,1-.625-.417l0,.026-11.781,1.422h-9.984a47.28,47.28,0,0,1-.623-8.381l-.747-.078-.439-.047.091-.844c-4.427-.853-6.7-1.816-7.293-3.063a24.655,24.655,0,0,1-1.924-9.411,60.079,60.079,0,0,1,.7-11.041c1.06-7.071,3.172-13.895,5.025-16.225,2.459-3.1,8.888-5.59,12.663-6.839a4.71,4.71,0,0,1,1.132-2,.511.511,0,0,1,.05-.043l.021-.017a109.555,109.555,0,0,1-1.949-17.148,3.771,3.771,0,0,1-.456.085,2.428,2.428,0,0,1-2.085-.621c-.711-.736-.729-2.278-.38-3.421a2.655,2.655,0,0,1,1.793-2.016,1.974,1.974,0,0,1,1.124.1c.036-2.492.149-5.715,1.546-7.715a4.379,4.379,0,0,1,4.229-2.2,7.359,7.359,0,0,1,3.493,1.619l.235-.132a39.694,39.694,0,0,1,5.575-2.683c1.249-.447,2.986-.926,3.659.065a1.4,1.4,0,0,1,.107,1.43c-.416.915-1.78,1.9-4.058,2.916-1.029.46-2.083.853-2.776,1.083a26.983,26.983,0,0,1,4.142,6.587c.868,2.234-.281,5.952-1.042,7.969-.915,2.423-2.4,5.278-3.348,5.8-.06.033-.121.064-.183.093.227.684.433,1.408.634,2.113a20.688,20.688,0,0,0,1.785,4.794,3.1,3.1,0,0,1,1.553,1.516c.847,0,3.1.032,5.453.235,4.086.355,6.687,1.055,7.726,2.08,1.562,1.519,3.68,4.8,5.958,9.226a154.565,154.565,0,0,1,7.868,18.62l16.538-2.621h.013a3.931,3.931,0,0,1,3.146,1.1,3.938,3.938,0,0,1,1.174,3.117l-.626,11.548c.373.078.774.169,1.228.279a9.5,9.5,0,0,1,4.235,2.295,9.049,9.049,0,0,1,2.433,3.847,8.4,8.4,0,0,1-1.611,8q-.274.019-.552.019Zm-54.465-8.092.129,0-.005.361.958.079v.007c.334.037.681.053,1.047.069,1.547.069,3.3.149,4.4,2.11.083.145.177.356.285.6.244.547.75,1.686,1.18,1.762.131.022.286-.106.393-.218a1.329,1.329,0,0,0,.128-.953,8.114,8.114,0,0,0-.294-1.316,10.087,10.087,0,0,0-1.572-3.153.441.441,0,0,1,.092-.619.441.441,0,0,1,.618.092,10.906,10.906,0,0,1,1.709,3.43,6.133,6.133,0,0,1,.335,2.227.831.831,0,0,0,.817-.392c.763-1.258-.47-4.881-1.175-5.853a.442.442,0,0,1,.1-.618.445.445,0,0,1,.619.1c.617.853,1.919,4.1,1.5,6.088a.842.842,0,0,0,.516,0,.085.085,0,0,0,.059-.077.474.474,0,0,1,.014-.06l.155-4.95c-.391-1.349-1.007-2.582-2.478-2.832-1.937-.328-4.465-.881-7.291-1.524A6.281,6.281,0,0,0,4179.886-1174.711Zm-12.059-68.2a.443.443,0,0,1-.114.614,3.371,3.371,0,0,1-.367.216,108.751,108.751,0,0,0,1.9,17.1,26.24,26.24,0,0,1,3.64-.832c.414-.067.929-.145,1.5-.216a22.14,22.14,0,0,1,4.921-.135,26.322,26.322,0,0,1-1.484-4.279c-.207-.73-.406-1.428-.625-2.087-.084.016-.171.03-.258.041a5.709,5.709,0,0,1-2.838-.467,7.354,7.354,0,0,1-3.3-2.6.443.443,0,0,1,.13-.612.444.444,0,0,1,.612.131,6.535,6.535,0,0,0,2.9,2.259,3.989,3.989,0,0,0,3.36.106c.48-.262,1.8-2.312,2.946-5.333,1.219-3.232,1.6-5.906,1.045-7.336a25.825,25.825,0,0,0-3.778-6.073,19.588,19.588,0,0,0-2.369-2.45c-2.427,1.388-5.191,3.115-8.23,5.143-.052.874-.063,1.733-.074,2.5v.091a6.446,6.446,0,0,1,.892.856.442.442,0,0,1-.042.624.44.44,0,0,1-.623-.042c-.782-.891-1.488-1.3-2.044-1.181-.471.1-.9.628-1.132,1.409a3.027,3.027,0,0,0,.167,2.546c.679.689,1.982.337,2.649-.12a.441.441,0,0,1,.25-.077A.441.441,0,0,1,4167.827-1242.909Zm3.527-13.749a3.794,3.794,0,0,0-2.616,1.824,8.8,8.8,0,0,0-1.224,4c2.7-1.787,5.175-3.332,7.386-4.608a6.128,6.128,0,0,0-2.761-1.216,3.426,3.426,0,0,0-.406-.025A3.021,3.021,0,0,0,4171.354-1256.659Zm5.113,1.344a18.609,18.609,0,0,1,1.374,1.355,30.219,30.219,0,0,0,3.165-1.219c2.682-1.218,3.354-2.062,3.515-2.457a.513.513,0,0,0-.048-.535c-.045-.065-.188-.2-.619-.2C4183-1258.368,4181.028-1257.856,4176.467-1255.315Zm-2.654,19.212a1.835,1.835,0,0,1-1.546-1.376.44.44,0,0,1,.321-.535.443.443,0,0,1,.537.322.923.923,0,0,0,.72.69,1.836,1.836,0,0,0,1.316-.12.441.441,0,0,1,.61-.094.44.44,0,0,1,.1.616,1.644,1.644,0,0,1-1.134.524,3.151,3.151,0,0,1-.382.023A2.86,2.86,0,0,1,4173.813-1236.1Zm3.041-2.321a.442.442,0,0,1-.354-.515.443.443,0,0,1,.515-.355c.312.058.548.038.63-.053.142-.156.105-.6-.1-1.316-.069-.225-.161-.482-.258-.753a5.671,5.671,0,0,1-.511-3.418.441.441,0,0,1,.051-.112l0-.005,0-.005a.429.429,0,0,1,.083-.089,3.942,3.942,0,0,1,1.011-.583,1.989,1.989,0,0,1,2.143.276.439.439,0,0,1,.041.624.441.441,0,0,1-.623.04c-.65-.571-1.6.027-1.908.249a5.672,5.672,0,0,0,.536,2.725c.1.282.2.549.272.8l0,0c.149.506.458,1.559-.087,2.162a1.154,1.154,0,0,1-.745.363,1.832,1.832,0,0,1-.224.013A2.657,2.657,0,0,1,4176.854-1238.423Zm-3.6-4.5a.449.449,0,0,1,.39-.5.449.449,0,0,1,.5.39.449.449,0,0,1-.39.5.457.457,0,0,1-.055,0A.449.449,0,0,1,4173.254-1242.92Zm5.357-.657a.448.448,0,0,1,.39-.5.449.449,0,0,1,.5.391.447.447,0,0,1-.39.5.471.471,0,0,1-.055,0A.449.449,0,0,1,4178.612-1243.577Zm-14-.431a.442.442,0,0,1,.373-.5,2.11,2.11,0,0,0,1.3-.719.442.442,0,0,1,.623-.05.442.442,0,0,1,.05.623,3,3,0,0,1-1.841,1.021h-.011a.447.447,0,0,1-.054,0A.442.442,0,0,1,4164.617-1244.008Zm7.153.175a.442.442,0,0,1,.115-.614,3.272,3.272,0,0,1,2.987-.367.444.444,0,0,1,.26.568.443.443,0,0,1-.361.285.444.444,0,0,1-.206-.025,2.391,2.391,0,0,0-2.181.267.435.435,0,0,1-.2.075.439.439,0,0,1-.053,0A.444.444,0,0,1,4171.77-1243.833Z" transform="translate(-4148.8 1259.25)" fill="#0a0413"/>
</svg>
