<svg xmlns="http://www.w3.org/2000/svg" width="19.348" height="19.317" viewBox="0 0 19.348 19.317">
  <g id="Group_6" data-name="Group 6" transform="translate(-48.402 -394.598)">
    <g id="Employee_searching" transform="translate(46.43 393.038)">
      <path id="Path_83" data-name="Path 83" d="M16.208,20.2V17.44l-6.4,2.919a1.717,1.717,0,0,1-.236.078v1a.483.483,0,0,1-.965,0v-1a1.724,1.724,0,0,1-.236-.078l-6.4-2.919V24.7a1.27,1.27,0,0,0,1.269,1.269h7.163a6.074,6.074,0,0,1,5.8-5.767Z" transform="translate(0 -10.202)" fill="#3f584c"/>
      <path id="Path_84" data-name="Path 84" d="M9.408,9.279l6.8-3.1V5.416a1.27,1.27,0,0,0-1.269-1.269H12.45c0-.014,0-.028-.007-.043a3.476,3.476,0,0,0-6.708.039v0H3.242A1.27,1.27,0,0,0,1.972,5.416v.761l6.8,3.1A.766.766,0,0,0,9.408,9.279ZM9.094,2.811a2.228,2.228,0,0,1,2.035,1.335H7.058A2.224,2.224,0,0,1,9.094,2.811Z" fill="#3f584c"/>
    </g>
    <path id="Icon_ionic-ios-checkmark-circle" data-name="Icon ionic-ios-checkmark-circle" d="M8.487,3.375A5.112,5.112,0,1,0,13.6,8.487,5.111,5.111,0,0,0,8.487,3.375Zm2.617,3.7-3.286,3.3h0a.444.444,0,0,1-.285.135.43.43,0,0,1-.288-.14L5.867,8.993a.1.1,0,0,1,0-.14L6.3,8.416a.1.1,0,0,1,.138,0L7.533,9.507l3-3.02a.1.1,0,0,1,.069-.029h0a.089.089,0,0,1,.069.029l.43.445A.1.1,0,0,1,11.1,7.074Z" transform="translate(54.151 400.316)" fill="#3f584c"/>
  </g>
</svg>
