<svg xmlns="http://www.w3.org/2000/svg" width="12" height="12" viewBox="0 0 12 12">
  <g id="Layer_2" data-name="Layer 2" transform="translate(0 0.25)">
    <g id="trash-2">
      <rect id="Rectangle_212" data-name="Rectangle 212" width="12" height="12" transform="translate(0 -0.25)" fill="#74707b" opacity="0"/>
      <path id="Path_225" data-name="Path 225" d="M11.929,4.09H9.316V3.217A1.265,1.265,0,0,0,8.01,2H6.442A1.265,1.265,0,0,0,5.135,3.217V4.09H2.523a.523.523,0,0,0,0,1.045h.523v5.749a1.568,1.568,0,0,0,1.568,1.568H9.839a1.568,1.568,0,0,0,1.568-1.568V5.135h.523a.523.523,0,0,0,0-1.045ZM6.181,3.217c0-.084.11-.172.261-.172H8.01c.152,0,.261.089.261.172V4.09H6.181Zm4.181,7.667a.523.523,0,0,1-.523.523H4.613a.523.523,0,0,1-.523-.523V5.135h6.271Z" transform="translate(-1.226 -1.225)" fill="#74707b"/>
      <path id="Path_226" data-name="Path 226" d="M8.523,14.136a.523.523,0,0,0,.523-.523v-2.09a.523.523,0,1,0-1.045,0v2.09A.523.523,0,0,0,8.523,14.136Z" transform="translate(-4.09 -5.522)" fill="#74707b"/>
      <path id="Path_227" data-name="Path 227" d="M14.523,14.136a.523.523,0,0,0,.523-.523v-2.09a.523.523,0,1,0-1.045,0v2.09A.523.523,0,0,0,14.523,14.136Z" transform="translate(-6.955 -5.522)" fill="#74707b"/>
    </g>
  </g>
</svg>
