<svg id="Layer_2" data-name="Layer 2" xmlns="http://www.w3.org/2000/svg" width="24" height="24" viewBox="0 0 24 24">
  <g id="book-open">
    <rect id="Rectangle_146" data-name="Rectangle 146" width="24" height="24" transform="translate(24 24) rotate(180)" fill="#fff" opacity="0"/>
    <path id="Path_209" data-name="Path 209" d="M20.62,4.22a1,1,0,0,0-.84-.2L12,5.77,4.22,4A1,1,0,0,0,3,5V17.2a1,1,0,0,0,.78,1l8,1.8h.44l8-1.8a1,1,0,0,0,.78-1V5A1,1,0,0,0,20.62,4.22ZM5,6.25,11,7.6V17.75L5,16.4ZM19,16.4l-6,1.35V7.6l6-1.35Z" fill="#fff"/>
  </g>
</svg>
