<svg xmlns="http://www.w3.org/2000/svg" xmlns:xlink="http://www.w3.org/1999/xlink" width="60" height="60" viewBox="0 0 60 60">
  <defs>
    <linearGradient id="linear-gradient" x1="0.206" y1="0.093" x2="0.79" y2="0.903" gradientUnits="objectBoundingBox">
      <stop offset="0" stop-color="#fff"/>
      <stop offset="1" stop-color="#fff" stop-opacity="0"/>
    </linearGradient>
  </defs>
  <g id="Experience" transform="translate(-286 -269)">
    <circle id="Ellipse_22" data-name="Ellipse 22" cx="30" cy="30" r="30" transform="translate(286 269)" fill="#ffcda7"/>
    <g id="credit-card" transform="translate(303.936 287.074)">
      <rect id="Rectangle_134" data-name="Rectangle 134" width="22" height="16" rx="2" transform="translate(1.064 3.926)" fill="none" stroke="#fff" stroke-linecap="round" stroke-linejoin="round" stroke-width="2"/>
      <line id="Line_12" data-name="Line 12" x2="22" transform="translate(1.064 9.926)" fill="none" stroke="#fff" stroke-linecap="round" stroke-linejoin="round" stroke-width="2"/>
    </g>
    <path id="Ellipse_24" data-name="Ellipse 24" d="M25.128.372a24.762,24.762,0,0,0-9.636,47.566A24.762,24.762,0,0,0,34.764,2.318,24.6,24.6,0,0,0,25.128.372m0-.372A25.128,25.128,0,1,1,0,25.128,25.128,25.128,0,0,1,25.128,0Z" transform="translate(291 274)" fill="url(#linear-gradient)"/>
  </g>
</svg>
