<svg xmlns="http://www.w3.org/2000/svg" width="20" height="20" viewBox="0 0 20 20">
  <g id="_4781833_filter_filters_funnel_list_navigation_icon" data-name="4781833_filter_filters_funnel_list_navigation_icon" transform="translate(-0.464 -0.464)">
    <g id="Layer_2" data-name="Layer 2" transform="translate(1.993 3.296)">
      <path id="Path_59" data-name="Path 59" d="M21.729,8.3H10.652a.652.652,0,0,1,0-1.3H21.729a.652.652,0,0,1,0,1.3Z" transform="translate(-5.439 -5.697)" fill="#0a0413"/>
      <path id="Path_60" data-name="Path 60" d="M5.607,8.3H3.652a.652.652,0,1,1,0-1.3H5.607a.652.652,0,1,1,0,1.3Z" transform="translate(-3 -5.697)" fill="#0a0413"/>
      <path id="Path_61" data-name="Path 61" d="M14.729,16.3H3.652a.652.652,0,0,1,0-1.3H14.729a.652.652,0,0,1,0,1.3Z" transform="translate(-3 -8.484)" fill="#0a0413"/>
      <path id="Path_62" data-name="Path 62" d="M8.213,24.3H3.652a.652.652,0,0,1,0-1.3H8.213a.652.652,0,1,1,0,1.3Z" transform="translate(-3 -11.271)" fill="#0a0413"/>
      <path id="Path_63" data-name="Path 63" d="M7.955,8.91A1.955,1.955,0,1,1,9.91,6.955,1.955,1.955,0,0,1,7.955,8.91Zm0-2.607a.652.652,0,1,0,.652.652A.652.652,0,0,0,7.955,6.3Z" transform="translate(-4.045 -5)" fill="#0a0413"/>
      <path id="Path_64" data-name="Path 64" d="M21.955,16.91a1.955,1.955,0,1,1,1.955-1.955A1.955,1.955,0,0,1,21.955,16.91Zm0-2.607a.652.652,0,1,0,.652.652A.652.652,0,0,0,21.955,14.3Z" transform="translate(-8.922 -7.787)" fill="#0a0413"/>
      <path id="Path_65" data-name="Path 65" d="M11.955,24.91a1.955,1.955,0,1,1,1.955-1.955A1.955,1.955,0,0,1,11.955,24.91Zm0-2.607a.652.652,0,1,0,.652.652A.652.652,0,0,0,11.955,22.3Z" transform="translate(-5.439 -10.574)" fill="#0a0413"/>
      <path id="Path_66" data-name="Path 66" d="M26.607,16.3H24.652a.652.652,0,0,1,0-1.3h1.955a.652.652,0,0,1,0,1.3Z" transform="translate(-10.316 -8.484)" fill="#0a0413"/>
      <path id="Path_67" data-name="Path 67" d="M23.123,24.3H14.652a.652.652,0,0,1,0-1.3h8.471a.652.652,0,0,1,0,1.3Z" transform="translate(-6.832 -11.271)" fill="#0a0413"/>
    </g>
    <g id="frame" transform="translate(0.43 0.43)">
      <rect id="Rectangle_27" data-name="Rectangle 27" width="20" height="20" transform="translate(0.034 0.034)" fill="none"/>
    </g>
  </g>
</svg>
