<svg xmlns="http://www.w3.org/2000/svg" width="24" height="24" viewBox="0 0 24 24">
  <g id="Layer_2" data-name="Layer 2" opacity="0.4">
    <g id="home">
      <rect id="Rectangle_82" data-name="Rectangle 82" width="24" height="24" fill="#54347d" opacity="0"/>
      <path id="Path_93" data-name="Path 93" d="M20.42,10.18,12.71,2.3a1,1,0,0,0-1.42,0L3.58,10.19A2,2,0,0,0,3,11.62V20a2,2,0,0,0,1.89,2H19.11A2,2,0,0,0,21,20V11.62a2.07,2.07,0,0,0-.58-1.44ZM10,20V14h4v6Zm9,0H16V13a1,1,0,0,0-1-1H9a1,1,0,0,0-1,1v7H5V11.58l7-7.15,7,7.19Z" fill="#54347d"/>
    </g>
  </g>
</svg>
