<svg xmlns="http://www.w3.org/2000/svg" width="11.665" height="10.851" viewBox="0 0 11.665 10.851">
  <g id="Icon_ionic-ios-wallet" data-name="Icon ionic-ios-wallet" transform="translate(-2.875 -3.993)" opacity="0.8">
    <path id="Path_199" data-name="Path 199" d="M12.5,11.25H4.913a1.539,1.539,0,0,0-1.538,1.538V17.1a1.539,1.539,0,0,0,1.538,1.538H12.5A1.539,1.539,0,0,0,14.04,17.1V12.788A1.539,1.539,0,0,0,12.5,11.25Z" transform="translate(0 -4.289)" fill="none" stroke="#0a0413" stroke-width="1"/>
    <path id="Path_200" data-name="Path 200" d="M11.65,4.525,5.628,5.7C5.167,5.8,4.5,6.268,4.5,6.832a1.615,1.615,0,0,1,1.256-.487h7.358V5.82a1.472,1.472,0,0,0-.356-.964h0A1.212,1.212,0,0,0,11.65,4.525Z" transform="translate(-0.715 0)" fill="none" stroke="#0a0413" stroke-width="1"/>
  </g>
</svg>
