<svg xmlns="http://www.w3.org/2000/svg" width="20.118" height="20.117" viewBox="0 0 20.118 20.117">
  <g id="Group_49" data-name="Group 49" transform="translate(-48.402 -394.598)">
    <g id="Employee_searching" transform="translate(48.402 394.598)">
      <path id="Path_83" data-name="Path 83" d="M17.23,20.4V17.44l-6.858,3.129a1.84,1.84,0,0,1-.253.084v1.072a.517.517,0,0,1-1.034,0V20.653a1.848,1.848,0,0,1-.253-.084L1.972,17.44v7.779a1.362,1.362,0,0,0,1.36,1.36H11.01A6.51,6.51,0,0,1,17.23,20.4Z" transform="translate(-1.972 -11.354)" fill="#6a0019"/>
      <path id="Path_84" data-name="Path 84" d="M9.942,9.833,17.23,6.508V5.692a1.362,1.362,0,0,0-1.36-1.36H13.2c0-.015,0-.03-.008-.046a3.725,3.725,0,0,0-7.189.042v0H3.333a1.362,1.362,0,0,0-1.36,1.36v.815L9.26,9.833A.821.821,0,0,0,9.942,9.833ZM9.606,2.9a2.388,2.388,0,0,1,2.181,1.431H7.423A2.384,2.384,0,0,1,9.606,2.9Z" transform="translate(-1.972 -1.559)" fill="#6a0019"/>
    </g>
    <g id="info_black_24dp" transform="translate(57.566 403.761)">
      <path id="Path_241" data-name="Path 241" d="M0,0H10.954V10.954H0Z" fill="none"/>
      <path id="Path_242" data-name="Path 242" d="M6.566,2a4.566,4.566,0,1,0,4.566,4.566A4.568,4.568,0,0,0,6.566,2Zm.457,6.849H6.109V6.109h.913Zm0-3.653H6.109V4.283h.913Z" transform="translate(-1.089 -1.089)" fill="#6a0019"/>
    </g>
  </g>
</svg>
