<svg xmlns="http://www.w3.org/2000/svg" xmlns:xlink="http://www.w3.org/1999/xlink" width="202" height="202" viewBox="0 0 202 202">
  <defs>
    <linearGradient id="linear-gradient" x1="0.074" y1="0.885" x2="0.886" y2="0.271" gradientUnits="objectBoundingBox">
      <stop offset="0" stop-color="#c8a0fb"/>
      <stop offset="1" stop-color="#a66bef" stop-opacity="0.51"/>
    </linearGradient>
    <linearGradient id="linear-gradient-2" x1="0.074" y1="0.885" x2="0.886" y2="0.271" gradientUnits="objectBoundingBox">
      <stop offset="0" stop-color="#c8a0fb" stop-opacity="0.478"/>
      <stop offset="1" stop-color="#cba4fb"/>
    </linearGradient>
    <linearGradient id="linear-gradient-3" x1="0.24" y1="0.106" x2="0.802" y2="0.916" gradientUnits="objectBoundingBox">
      <stop offset="0" stop-color="#d5b4ff"/>
      <stop offset="1" stop-color="#c296f9"/>
    </linearGradient>
    <filter id="Ellipse_4" x="0" y="0" width="202" height="202" filterUnits="userSpaceOnUse">
      <feOffset dy="6" input="SourceAlpha"/>
      <feGaussianBlur stdDeviation="12" result="blur"/>
      <feFlood flood-color="#b277ff" flood-opacity="0.349"/>
      <feComposite operator="in" in2="blur"/>
      <feComposite in="SourceGraphic"/>
    </filter>
    <linearGradient id="linear-gradient-4" x1="1" y1="0.753" x2="-0.191" gradientUnits="objectBoundingBox">
      <stop offset="0" stop-color="#c8a0fb"/>
      <stop offset="1" stop-color="#9271bc" stop-opacity="0"/>
    </linearGradient>
    <linearGradient id="linear-gradient-5" x1="0.206" y1="0.093" x2="0.79" y2="0.903" gradientUnits="objectBoundingBox">
      <stop offset="0" stop-color="#fff"/>
      <stop offset="1" stop-color="#fff" stop-opacity="0"/>
    </linearGradient>
    <linearGradient id="linear-gradient-6" x1="0.206" y1="0.093" x2="0.79" y2="0.903" gradientUnits="objectBoundingBox">
      <stop offset="0" stop-color="#eee"/>
      <stop offset="1" stop-color="#fafafa" stop-opacity="0"/>
    </linearGradient>
    <linearGradient id="linear-gradient-7" x1="0.774" x2="0.204" y2="0.892" gradientUnits="objectBoundingBox">
      <stop offset="0" stop-color="#fff"/>
      <stop offset="1" stop-color="#fff" stop-opacity="0.988"/>
    </linearGradient>
  </defs>
  <g id="Job-Applied-Successfully" transform="translate(-86.5 -215)">
    <circle id="Ellipse_26" data-name="Ellipse 26" cx="9.863" cy="9.863" r="9.863" transform="translate(93.637 320.81)" fill="url(#linear-gradient)"/>
    <circle id="Ellipse_28" data-name="Ellipse 28" cx="2.758" cy="2.758" r="2.758" transform="translate(245.604 253.02)" fill="url(#linear-gradient-2)"/>
    <g transform="matrix(1, 0, 0, 1, 86.5, 215)" filter="url(#Ellipse_4)">
      <circle id="Ellipse_4-2" data-name="Ellipse 4" cx="65" cy="65" r="65" transform="translate(36 30)" fill="url(#linear-gradient-3)"/>
    </g>
    <circle id="Ellipse_25" data-name="Ellipse 25" cx="4.322" cy="4.322" r="4.322" transform="translate(248.49 350.047) rotate(-7)" fill="url(#linear-gradient-4)"/>
    <path id="Ellipse_24" data-name="Ellipse 24" d="M54.221.8A53.432,53.432,0,0,0,33.429,103.442,53.432,53.432,0,0,0,75.014,5,53.083,53.083,0,0,0,54.221.8m0-.8A54.221,54.221,0,1,1,0,54.221,54.221,54.221,0,0,1,54.221,0Z" transform="translate(133.279 255.779)" fill="url(#linear-gradient-5)"/>
    <path id="Ellipse_24-2" data-name="Ellipse 24" d="M72.137,1.069A71.088,71.088,0,0,0,44.474,137.621,71.087,71.087,0,0,0,99.8,6.653,70.622,70.622,0,0,0,72.137,1.069m0-1.069A72.137,72.137,0,1,1,0,72.137,72.137,72.137,0,0,1,72.137,0Z" transform="translate(115.363 237.863)" fill="url(#linear-gradient-6)"/>
    <path id="Icon_feather-check" data-name="Icon feather-check" d="M24.99,53.6a3.85,3.85,0,0,1-2.731-1.131L4.131,34.346a3.862,3.862,0,0,1,5.462-5.462l15.4,15.4,37.15-37.15A3.862,3.862,0,1,1,67.6,12.593L27.72,52.473A3.85,3.85,0,0,1,24.99,53.6Z" transform="translate(151.134 280.198)" fill="url(#linear-gradient-7)"/>
    <path id="Path_201" data-name="Path 201" d="M-360.9,1596.976s11.428-.853,17.523,6.258" transform="translate(624.696 -1282.424)" fill="none" stroke="#ffcda7" stroke-linecap="round" stroke-width="3"/>
    <path id="Path_202" data-name="Path 202" d="M-360.9,1596.962s6.454-.482,9.9,3.534" transform="translate(-1429.344 -56.999) rotate(-87)" fill="none" stroke="#a7ffb6" stroke-linecap="round" stroke-width="3"/>
    <path id="Path_203" data-name="Path 203" d="M-363.135,1623.694s1.308-2.87,3.749-3.242,6.131,2,9.1.766,4.919-5.195,4.919-5.195" transform="translate(1783.473 108.576) rotate(73)" fill="none" stroke="#ffa2c5" stroke-linecap="round" stroke-width="3"/>
  </g>
</svg>
