<svg xmlns="http://www.w3.org/2000/svg" width="16.111" height="16.111" viewBox="0 0 16.111 16.111">
  <g id="icons" transform="translate(-2 -2)">
    <g id="exit2" transform="translate(2 2)">
      <path id="Path_85" data-name="Path 85" d="M11.611,8.444a1.616,1.616,0,0,0,1.611-1.611V3.611a1.611,1.611,0,0,0-3.222,0V6.833A1.616,1.616,0,0,0,11.611,8.444Z" transform="translate(-3.556 -2)"/>
      <path id="Path_86" data-name="Path 86" d="M15.775,4.822h0a1.1,1.1,0,0,0-.886-.322A1.239,1.239,0,0,0,13.68,5.708,1.689,1.689,0,0,0,14,6.594h0a5.474,5.474,0,0,1,1.611,3.947,5.639,5.639,0,1,1-11.278,0A5.41,5.41,0,0,1,6.028,6.594h0a1.294,1.294,0,0,0,.4-.886A1.239,1.239,0,0,0,5.222,4.5a1.689,1.689,0,0,0-.886.322h0a8.056,8.056,0,1,0,11.439,0Z" transform="translate(-2 -2.486)"/>
    </g>
  </g>
</svg>
