<svg xmlns="http://www.w3.org/2000/svg" width="20.521" height="19.001" viewBox="0 0 20.521 19.001">
  <path id="Icon_metro-suitcase" data-name="Icon metro-suitcase" d="M23.5,24.785H6.019a1.52,1.52,0,0,1-1.52-1.52v-9.12a38.7,38.7,0,0,0,7.6,2.876v.924a.759.759,0,0,0,.76.76h3.8a.76.76,0,0,0,.76-.76V17.02a38.723,38.723,0,0,0,7.6-2.876v9.12A1.521,1.521,0,0,1,23.5,24.785Zm-7.6-9.12a.76.76,0,0,1,.76.76v.76a.76.76,0,0,1-.76.76h-2.28a.759.759,0,0,1-.76-.76v-.76a.759.759,0,0,1,.76-.76Zm1.52,0a.76.76,0,0,0-.76-.76h-3.8a.759.759,0,0,0-.76.76v.681a38.069,38.069,0,0,1-7.6-2.961v-3.04a1.52,1.52,0,0,1,1.52-1.52h4.56V7.3a1.521,1.521,0,0,1,1.52-1.52h5.32a1.521,1.521,0,0,1,1.52,1.52v1.52H23.5a1.521,1.521,0,0,1,1.52,1.52v3.04a38.091,38.091,0,0,1-7.6,2.961v-.681Zm0-7.6a.76.76,0,0,0-.76-.76h-3.8a.759.759,0,0,0-.76.76v.76h5.32Z" transform="translate(-4.499 -5.784)" fill="#112134"/>
</svg>
