<svg xmlns="http://www.w3.org/2000/svg" width="17.383" height="17.38" viewBox="0 0 17.383 17.38">
  <g id="Glyph" transform="translate(-1.997 -2)">
    <g id="Glyph-2" data-name="Glyph" transform="translate(1.997 2)">
      <path id="Path_78" data-name="Path 78" d="M31.29,13.579h5.793a.29.29,0,1,0,0-.579H31.29a.29.29,0,1,0,0,.579Z" transform="translate(-22.599 -9.814)" fill="#343e48"/>
      <path id="Path_79" data-name="Path 79" d="M40.635,17H36.29a.29.29,0,0,0,0,.579h4.345a.29.29,0,1,0,0-.579Z" transform="translate(-26.15 -12.655)" fill="#343e48"/>
      <path id="Path_80" data-name="Path 80" d="M18.509,5.476H17.93V4.028a.29.29,0,0,0-.29-.29H15.9V2.29a.29.29,0,0,0-.29-.29H3.446a.29.29,0,0,0-.29.29V5.476H3.064A1.115,1.115,0,0,0,2,6.635V18.2A1.138,1.138,0,0,0,3.081,19.38H18.338a1.118,1.118,0,0,0,1.04-1.182V6.345A.869.869,0,0,0,18.509,5.476ZM5.184,4.028V5.493a1.121,1.121,0,0,0-.869,1.141V17.642H3.736V2.579H15.323V3.738H5.474A.29.29,0,0,0,5.184,4.028Zm6.662,13.614A4.055,4.055,0,1,1,15.9,13.587a4.055,4.055,0,0,1-4.055,4.055Zm5.5-9.849H11.371a.24.24,0,0,1-.165-.067L9.057,5.7A.82.82,0,0,0,8.5,5.476H5.763V4.317H17.35Z" transform="translate(-1.997 -2)" fill="#343e48"/>
      <path id="Path_81" data-name="Path 81" d="M27.49,30a3.476,3.476,0,0,0-2.427,5.958,2.442,2.442,0,0,1,4.858,0A3.476,3.476,0,0,0,27.49,30Zm0,3.186a1.3,1.3,0,1,1,1.3-1.3A1.3,1.3,0,0,1,27.49,33.186Z" transform="translate(-17.64 -21.889)" fill="#343e48"/>
      <circle id="Ellipse_9" data-name="Ellipse 9" cx="0.724" cy="0.724" r="0.724" transform="translate(9.125 9.269)" fill="#343e48"/>
      <path id="Path_82" data-name="Path 82" d="M31.378,45a1.958,1.958,0,0,0-1.883,2.048,3.45,3.45,0,0,0,3.766,0A1.958,1.958,0,0,0,31.378,45Z" transform="translate(-21.528 -32.544)" fill="#343e48"/>
    </g>
  </g>
</svg>
