<svg id="Layer_2" data-name="Layer 2" xmlns="http://www.w3.org/2000/svg" width="24" height="24" viewBox="0 0 24 24">
  <g id="person-add">
    <rect id="Rectangle_151" data-name="Rectangle 151" width="24" height="24" fill="#fff" opacity="0"/>
    <path id="Path_211" data-name="Path 211" d="M21,6H20V5a1,1,0,0,0-2,0V6H17a1,1,0,0,0,0,2h1V9a1,1,0,0,0,2,0V8h1a1,1,0,0,0,0-2Z" fill="#fff"/>
    <path id="Path_212" data-name="Path 212" d="M10,11A4,4,0,1,0,6,7,4,4,0,0,0,10,11Zm0-6A2,2,0,1,1,8,7,2,2,0,0,1,10,5Z" fill="#fff"/>
    <path id="Path_213" data-name="Path 213" d="M10,13a7,7,0,0,0-7,7,1,1,0,0,0,2,0,5,5,0,0,1,10,0,1,1,0,0,0,2,0A7,7,0,0,0,10,13Z" fill="#fff"/>
  </g>
</svg>
