<svg xmlns="http://www.w3.org/2000/svg" xmlns:xlink="http://www.w3.org/1999/xlink" width="62.308" height="62.308" viewBox="0 0 62.308 62.308">
  <defs>
    <filter id="_5402431_done_success_tick_valid_approve_icon" x="0" y="0" width="62.308" height="62.308" filterUnits="userSpaceOnUse">
      <feOffset dy="3" input="SourceAlpha"/>
      <feGaussianBlur stdDeviation="6" result="blur"/>
      <feFlood flood-color="#ffc10a" flood-opacity="0.2"/>
      <feComposite operator="in" in2="blur"/>
      <feComposite in="SourceGraphic"/>
    </filter>
  </defs>
  <g transform="matrix(1, 0, 0, 1, 0, 0)" filter="url(#_5402431_done_success_tick_valid_approve_icon)">
    <path id="_5402431_done_success_tick_valid_approve_icon-2" data-name="5402431_done_success_tick_valid_approve_icon" d="M15.154,2A13.154,13.154,0,1,0,28.308,15.154,13.154,13.154,0,0,0,15.154,2Zm5.113,11.224L13.69,19.8a1.315,1.315,0,0,1-1.868,0L9.192,17.17A1.321,1.321,0,0,1,11.059,15.3l1.7,1.71L18.4,11.356a1.321,1.321,0,1,1,1.868,1.868Z" transform="translate(16 13)" fill="#ffc10a"/>
  </g>
</svg>
