<svg xmlns="http://www.w3.org/2000/svg" xmlns:xlink="http://www.w3.org/1999/xlink" width="62.333" height="52.275" viewBox="0 0 62.333 52.275">
  <defs>
    <filter id="rect5475" x="0" y="0" width="62.333" height="52.275" filterUnits="userSpaceOnUse">
      <feOffset dy="3" input="SourceAlpha"/>
      <feGaussianBlur stdDeviation="6" result="blur"/>
      <feFlood flood-color="#ffc10a" flood-opacity="0.2"/>
      <feComposite operator="in" in2="blur"/>
      <feComposite in="SourceGraphic"/>
    </filter>
  </defs>
  <g id="Group_54" data-name="Group 54" transform="translate(138.541 -41.781)">
    <path id="path5489" d="M631.008,166.041a1.6,1.6,0,0,0-1.605,1.605v1.789h1.008v-1.257a1.127,1.127,0,0,1,1.13-1.13h2.529a1.127,1.127,0,0,1,1.13,1.13v1.257h1.008v-1.789a1.6,1.6,0,0,0-1.605-1.605Z" transform="translate(-740.179 -111.996)" fill="#ffc10a" fill-rule="evenodd"/>
    <g transform="matrix(1, 0, 0, 1, -138.54, 41.78)" filter="url(#rect5475)">
      <path id="rect5475-2" data-name="rect5475" d="M432.1,222.052h21.106a2.608,2.608,0,0,1,2.613,2.613v11.048a2.608,2.608,0,0,1-2.613,2.613H432.1a2.608,2.608,0,0,1-2.613-2.613V224.665A2.608,2.608,0,0,1,432.1,222.052Z" transform="translate(-411.49 -207.05)" fill="#ffc10a" fill-rule="evenodd"/>
    </g>
    <path id="rect5493" d="M555.962,533.667a.574.574,0,0,1,.575.575v.711a.575.575,0,0,1-1.15,0v-.711A.574.574,0,0,1,555.962,533.667Z" transform="translate(-669.778 -461.666)" fill="#ffc10a" fill-rule="evenodd"/>
    <path id="rect5495" d="M819.747,533.667a.574.574,0,0,1,.575.575v.711a.575.575,0,0,1-1.15,0v-.711A.574.574,0,0,1,819.747,533.667Z" transform="translate(-920.68 -461.666)" fill="#ffc10a" fill-rule="evenodd"/>
  </g>
</svg>
